<svg width="32" height="30" viewBox="0 0 32 30" fill="none" xmlns="http://www.w3.org/2000/svg">
<path fill-rule="evenodd" clip-rule="evenodd" d="M15.8935 0C7.39638 0 0.514099 6.88228 0.514099 15.3794C0.514099 22.1848 4.91645 27.9328 11.0298 29.9706C11.7987 30.1052 12.0871 29.6438 12.0871 29.2401C12.0871 28.8748 12.0679 27.6637 12.0679 26.3757C8.2038 27.087 7.20414 25.4337 6.89655 24.5686C6.72353 24.1264 5.97379 22.7615 5.32016 22.3963C4.78188 22.1079 4.01291 21.3966 5.30094 21.3774C6.51207 21.3582 7.37716 22.4924 7.66552 22.9538C9.04967 25.2799 11.2605 24.6263 12.1448 24.2226C12.2793 23.2229 12.6831 22.5501 13.1252 22.1656C9.70329 21.7811 6.12758 20.4546 6.12758 14.572C6.12758 12.8995 6.72353 11.5153 7.70397 10.4388C7.55018 10.0543 7.0119 8.4779 7.85776 6.36323C7.85776 6.36323 9.14579 5.95952 12.0871 7.93962C13.3175 7.59358 14.6247 7.42056 15.932 7.42056C17.2392 7.42056 18.5464 7.59358 19.7768 7.93962C22.7181 5.9403 24.0061 6.36323 24.0061 6.36323C24.852 8.4779 24.3137 10.0543 24.1599 10.4388C25.1404 11.5153 25.7363 12.8803 25.7363 14.572C25.7363 20.4738 22.1414 21.7811 18.7195 22.1656C19.277 22.6462 19.7576 23.5689 19.7576 25.0108C19.7576 27.0678 19.7384 28.721 19.7384 29.2401C19.7384 29.6438 20.0267 30.1244 20.7957 29.9706C23.8487 28.9398 26.5017 26.9776 28.3811 24.3602C30.2606 21.7427 31.272 18.6018 31.2729 15.3794C31.2729 6.88228 24.3906 0 15.8935 0Z" fill="white"/>
</svg>
