<svg width="13" height="26" viewBox="0 0 13 26" fill="none" xmlns="http://www.w3.org/2000/svg">
<path d="M8.41793 6.52049C10.2185 6.52049 11.6782 5.06083 11.6782 3.26025C11.6782 1.45966 10.2185 0 8.41793 0C6.61735 0 5.15768 1.45966 5.15768 3.26025C5.15768 5.06083 6.61735 6.52049 8.41793 6.52049Z" fill="white"/>
<path d="M11.7514 19.7489C11.6613 19.6883 11.5601 19.6463 11.4536 19.6254C11.347 19.6045 11.2374 19.605 11.1311 19.6271C11.0248 19.6491 10.924 19.6921 10.8346 19.7536C10.7451 19.8151 10.6689 19.8939 10.6103 19.9853C9.82238 21.1521 8.85713 22.1889 7.74944 23.058C7.48047 23.2618 6.47794 24.0361 6.05411 23.8731C5.76069 23.7834 5.93185 23.2048 5.98891 22.9602L6.42089 21.6806C6.6002 21.1589 9.72189 11.8998 10.0642 10.8403C10.5696 9.29165 10.3495 7.76749 8.04286 8.13427C7.41526 8.19947 1.04963 9.02268 0.935525 9.03083C0.828489 9.03779 0.723873 9.06576 0.627647 9.11315C0.531422 9.16054 0.445472 9.22642 0.374706 9.30702C0.303941 9.38763 0.249744 9.48138 0.215211 9.58293C0.180678 9.68448 0.166485 9.79184 0.173442 9.89887C0.1804 10.0059 0.208371 10.1105 0.25576 10.2068C0.303148 10.303 0.369025 10.3889 0.44963 10.4597C0.530235 10.5305 0.623989 10.5847 0.725539 10.6192C0.827089 10.6537 0.934447 10.6679 1.04148 10.661C1.04148 10.661 3.48667 10.3431 3.75564 10.3186C3.89341 10.3052 4.03213 10.3319 4.15506 10.3955C4.27799 10.4592 4.37988 10.557 4.44844 10.6773C4.59613 11.1338 4.57589 11.6281 4.39139 12.071C4.17947 12.8861 0.829567 22.3245 0.723609 22.8706C0.609963 23.3276 0.641516 23.8086 0.813882 24.2468C0.986248 24.685 1.29086 25.0587 1.68538 25.3158C2.42587 25.8093 3.30756 26.0469 4.19577 25.9923C5.05938 25.9817 5.91347 25.8103 6.71431 25.4869C8.74381 24.6719 10.863 22.5038 11.9796 20.8003C12.0758 20.6272 12.1056 20.4251 12.0636 20.2316C12.0216 20.0381 11.9106 19.8665 11.7514 19.7489Z" fill="white"/>
</svg>
