<svg width="31" height="32" viewBox="0 0 31 32" fill="none" xmlns="http://www.w3.org/2000/svg">
<path d="M6.17353 20.7587C7.57022 20.7545 8.91408 20.2243 9.93731 19.2736L19.9336 24.9855C19.5987 26.2943 19.7463 27.68 20.3495 28.8888C20.9527 30.0976 21.9711 31.0487 23.2183 31.5681C24.4654 32.0874 25.8579 32.1402 27.1408 31.7168C28.4237 31.2933 29.5112 30.422 30.2042 29.2623C30.8971 28.1026 31.1493 26.7322 30.9144 25.4018C30.6795 24.0714 29.9733 22.8701 28.9251 22.0178C27.8769 21.1655 26.5568 20.7193 25.2064 20.7608C23.8561 20.8023 22.5659 21.3287 21.572 22.2437L11.5757 16.5318C11.6811 16.1326 11.7386 15.719 11.7481 15.3054L21.5688 9.69246C22.5144 10.5528 23.7271 11.0618 25.0035 11.134C26.2799 11.2062 27.5423 10.8372 28.5789 10.089C29.6155 9.34076 30.3633 8.25881 30.6968 7.02463C31.0302 5.79045 30.9291 4.47914 30.4103 3.31068C29.8916 2.14223 28.9867 1.18773 27.8477 0.607309C26.7086 0.0268893 25.4045 -0.144135 24.1543 0.122929C22.9041 0.389992 21.7837 1.07889 20.9812 2.07406C20.1787 3.06923 19.7429 4.31012 19.7468 5.58854C19.7532 6.04844 19.8155 6.50674 19.9336 6.95066L10.8571 12.1356C10.3307 11.3214 9.60159 10.658 8.74129 10.2108C7.881 9.76352 6.91915 9.54778 5.95025 9.58475C4.98135 9.62172 4.03873 9.91011 3.21501 10.4216C2.39129 10.9331 1.71481 11.6501 1.25203 12.5021C0.789245 13.3542 0.556086 14.3119 0.575457 15.2813C0.594827 16.2507 0.866063 17.1984 1.36251 18.0313C1.85896 18.8642 2.56355 19.5536 3.40704 20.0317C4.25054 20.5099 5.20392 20.7604 6.17353 20.7587Z" fill="white"/>
</svg>
